<?xml version="1.0" encoding="UTF-8"?>
<svg width="82px" height="82px" viewBox="0 0 82 82" version="1.1" xmlns="http://www.w3.org/2000/svg" xmlns:xlink="http://www.w3.org/1999/xlink">
    <!-- Generator: Sketch 49.1 (51147) - http://www.bohemiancoding.com/sketch -->
    <title>复制到</title>
    <desc>Created with Sketch.</desc>
    <defs></defs>
    <g id="移动端" stroke="none" stroke-width="1" fill="none" fill-rule="evenodd">
        <g id="Artboard" transform="translate(-486.000000, -134.000000)">
            <g id="Lunch-Icon-w/Background-Copy" transform="translate(486.000000, 134.000000)">
                <circle id="Background" fill-opacity="0.6" fill="#DCDCDC" cx="41" cy="41" r="41"></circle>
                <g id="复制链接" transform="translate(18.000000, 18.000000)" fill="#2A557F" fill-rule="nonzero">
                    <path d="M40.0744998,0.022909293 L15.7571235,0.022909293 C12.5958645,0.022909293 10.0353878,2.58338598 10.0353878,5.7446449 L37.1942429,5.7446449 C38.7849301,5.7446449 40.0744998,7.01728407 40.0744998,8.59288466 L40.0744998,37.2141908 C43.232909,37.2141908 45.7962354,34.6508644 45.7962354,31.4924552 L45.7962354,5.7446449 C45.7962354,2.58338598 43.232909,0.022909293 40.0744998,0.022909293 Z M31.4918964,17.1881161 L5.74408614,17.1881161 L5.74408614,14.3266896 L31.4918964,14.3266896 L31.4918964,17.1881161 Z M31.4918964,25.7707195 L5.74408614,25.7707195 L5.74408614,22.9098517 L31.4918964,22.9098517 L31.4918964,25.7707195 Z M2.87891586,8.60551271 C1.30130372,8.60551271 0.0223505297,9.88575105 0.0223505297,11.4621339 L0.0223505297,42.9402288 C0.0223505297,44.5178969 1.302533,45.7967942 2.87891586,45.7967942 L34.3570667,45.7967942 C35.9346229,45.7967942 37.213632,44.5166676 37.213632,42.9402288 L37.213632,11.4621339 C37.213632,9.8844659 35.9334495,8.60551271 34.3570667,8.60551271 L2.87891586,8.60551271 Z" id="Shape"></path>
                </g>
            </g>
        </g>
    </g>
</svg>