<?xml version="1.0" encoding="UTF-8"?>
<svg width="85px" height="67px" viewBox="0 0 85 67" version="1.1" xmlns="http://www.w3.org/2000/svg" xmlns:xlink="http://www.w3.org/1999/xlink">
    <!-- Generator: Sketch 49.1 (51147) - http://www.bohemiancoding.com/sketch -->
    <title>1</title>
    <desc>Created with Sketch.</desc>
    <defs>
        <linearGradient x1="50%" y1="0%" x2="50%" y2="27.7900291%" id="linearGradient-1">
            <stop stop-color="#97DEFF" offset="0%"></stop>
            <stop stop-color="#95DDFF" offset="100%"></stop>
        </linearGradient>
        <linearGradient x1="50.000006%" y1="100%" x2="50.000006%" y2="0%" id="linearGradient-2">
            <stop stop-color="#64C9F7" offset="0%"></stop>
            <stop stop-color="#7AD3FB" offset="53.4594649%"></stop>
            <stop stop-color="#82D6FC" offset="100%"></stop>
        </linearGradient>
        <linearGradient x1="50%" y1="0%" x2="50%" y2="100%" id="linearGradient-3">
            <stop stop-color="#000000" stop-opacity="0" offset="0%"></stop>
            <stop stop-color="#000000" stop-opacity="0.19" offset="100%"></stop>
        </linearGradient>
        <path d="M0,34.9446804 L0,14.5486426 C0,12.1953057 1.90590262,10.2903226 4.25695264,10.2903226 L79.8398216,10.2903226 C82.1898358,10.2903226 84.0967742,12.1968374 84.0967742,14.5486426 L84.0967742,34.9446804 L84.0967742,63.5150009 C84.0967742,64.8883268 82.985249,66 81.6141132,66 L2.48266103,66 C1.11348643,66 0,64.887428 0,63.5150009 L0,34.9446804 L0,34.9446804 Z" id="path-4"></path>
    </defs>
    <g id="Page-1" stroke="none" stroke-width="1" fill="none" fill-rule="evenodd">
        <g id="1" transform="translate(0.859257, 0.497514)">
            <path d="M32.79329,6.56451613 L79.8398216,6.56451613 C82.1898358,6.56451613 84.0967742,8.47158138 84.0967742,10.8240656 L84.0967742,36.9916398 L84.0967742,63.5152355 C84.0967742,64.8868656 82.985249,66 81.6141132,66 L2.48266103,66 C1.11348643,66 0,64.887533 0,63.5152355 L0,36.9916398 L0,10.8240656 C0,10.7295092 0.00307402354,10.6356776 0.00912744969,10.542665 L0.00912744969,10.542665 C0.00307396406,10.4497186 0,10.3559588 0,10.2614804 L0,4.25830776 C0,1.9056685 1.90614617,0 4.25749664,0 L23.7747614,0 C25.4829219,0 26.9549206,1.00493832 27.6332883,2.45561596 L27.6348117,2.44388924 C27.6348117,2.44388924 28.3521869,3.70097444 28.6677753,4.12264824 C29.0283252,4.60439749 28.9977126,4.67963618 29.6283112,5.28153397 C30.3235226,5.94510363 30.4943089,6.01542733 30.8143303,6.1737636 C30.9435125,6.23767882 31.2044013,6.38501114 31.6178523,6.45444792 C32.0236326,6.52259646 32.5115036,6.55227244 32.79329,6.56451613 L32.79329,6.56451613 Z" id="back" fill="url(#linearGradient-1)"></path>
            <path d="M0,34.6849706 L0,14.3725468 C0,12.017897 1.90590262,10.1129032 4.25695264,10.1129032 L79.8398216,10.1129032 C82.1898358,10.1129032 84.0967742,12.0200106 84.0967742,14.3725468 L84.0967742,34.6849706 L84.0967742,63.1607378 C84.0967742,64.5344696 82.985249,65.6451613 81.6141132,65.6451613 L2.48266103,65.6451613 C1.11348643,65.6451613 0,64.532847 0,63.1607378 L0,34.6849706 L0,34.6849706 Z" id="top" fill="#FFFFFF" opacity="0.5"></path>
            <g id="light-line">
                <use fill="url(#linearGradient-2)" fill-rule="evenodd" xlink:href="#path-4"></use>
                <path stroke="url(#linearGradient-3)" stroke-width="1" d="M0.5,14.5486426 L0.5,63.5150009 C0.5,64.6106523 1.38899576,65.5 2.48266103,65.5 L81.6141132,65.5 C82.7093394,65.5 83.5967742,64.6119514 83.5967742,63.5150009 L83.5967742,14.5486426 C83.5967742,12.4733204 81.914034,10.7903226 79.8398216,10.7903226 L4.25695264,10.7903226 C2.18152417,10.7903226 0.5,12.4719689 0.5,14.5486426 Z"></path>
            </g>
        </g>
    </g>
</svg>