<?xml version="1.0" encoding="UTF-8"?>
<svg width="13px" height="18px" viewBox="0 0 13 18" version="1.1" xmlns="http://www.w3.org/2000/svg" xmlns:xlink="http://www.w3.org/1999/xlink">
    <!-- Generator: Sketch 49.1 (51147) - http://www.bohemiancoding.com/sketch -->
    <title>修改ip地址</title>
    <desc>Created with Sketch.</desc>
    <defs></defs>
    <g id="移动端" stroke="none" stroke-width="1" fill="none" fill-rule="evenodd">
        <g id="修改ip地址" transform="translate(0.433438, 0.663450)">
            <g id="IP地址查询" transform="translate(0.018107, 0.017924)">
                <path d="M6.11215997,16.8511175 C2.73903669,16.8511175 0.00445583732,15.9868849 0.00445583732,14.9205211 C0.00445583732,14.0290739 1.91754548,13.2800537 4.51665312,13.0582209 C2.81176863,11.1087421 0.353409271,7.89886082 0.353409271,5.794207 C0.353409271,2.59539536 2.93171637,0.00241774133 6.11215997,0.00241774133 C9.29260356,0.00241774133 11.8709107,2.59539536 11.8709107,5.794207 C11.8709107,7.89746212 9.36925183,11.1048458 7.66352813,13.0546243 C10.2845752,13.2717214 12.2198641,14.0237988 12.2198641,14.9205211 C12.2198841,15.9868849 9.48500351,16.8511175 6.11215997,16.8511175 Z" id="Combined-Shape" fill="#899098"></path>
                <path d="M7.65245102,13.0671126 C9.59527601,13.2645082 10.9983652,13.8225269 10.9983652,14.4818709 C10.9983652,15.3058611 8.81040924,15.9735574 6.1119102,15.9735574 C3.41341116,15.9735574 1.22573491,15.3058611 1.22573491,14.4818709 C1.22573491,13.8275222 2.60802356,13.2731002 4.52806984,13.0718282 C5.40814766,14.0773888 6.08471561,14.745065 6.1119102,14.745065 C6.10275875,14.745065 6.76961577,14.0757104 7.65245102,13.0671126 Z M4.73714878,7.99471297 C4.73714878,8.03832059 4.70677424,8.0592781 4.64605594,8.0592781 C4.60801853,8.0592781 4.55028536,8.0567238 4.47288723,8.05029191 C4.39465818,8.04389079 4.33735586,8.0413365 4.29971851,8.0413365 C4.25952688,8.0413365 4.20093203,8.04432164 4.12313382,8.05029191 C4.04530484,8.05715465 3.9880333,8.0592781 3.94996511,8.0592781 C3.89777137,8.0592781 3.87127444,8.0357663 3.87127444,7.98831185 C3.87127444,7.75227062 3.88238407,7.39651616 3.90420327,6.92191017 C3.92642253,6.44684257 3.93756294,6.09068804 3.93756294,5.85249258 C3.93756294,5.62245239 3.92642253,5.2774075 3.90420327,4.81689628 C3.88238407,4.35681591 3.87127444,4.0113094 3.87127444,3.78170005 C3.87127444,3.72996794 3.89564793,3.70387107 3.94353321,3.70387107 C3.98372485,3.70387107 4.04447392,3.70728705 4.1265498,3.71285726 C4.20822561,3.71925838 4.27020567,3.72227429 4.31255153,3.72227429 C4.35018887,3.72227429 4.40702957,3.71925838 4.4827351,3.71285726 C4.55797902,3.70688698 4.61485049,3.70387107 4.65248783,3.70387107 C4.70677424,3.70387107 4.73413287,3.72439774 4.73413287,3.76631275 C4.73413287,3.99804554 4.7256083,4.3456755 4.70889769,4.80920263 C4.69181778,5.27266821 4.68326244,5.62032895 4.68326244,5.85209251 C4.68326244,6.09025719 4.69224863,6.44727341 4.71019022,6.92317193 C4.72816259,7.39910123 4.73714878,7.75611744 4.73714878,7.99474375 L4.73714878,7.99471297 Z M5.64235307,8.05029191 C5.56880176,8.05715465 5.51365366,8.0592781 5.47813976,8.0592781 C5.42554596,8.0592781 5.39904902,8.0276418 5.39904902,7.96350752 C5.39904902,7.737745 5.4088969,7.39737785 5.42896194,6.94157515 C5.44908853,6.48660336 5.45890563,6.14497445 5.45890563,5.91708848 C5.45890563,5.27143723 5.43453215,4.57786991 5.38621601,3.83684815 L5.38323088,3.7902554 C5.38107665,3.7449244 5.40846605,3.72224351 5.46490668,3.72224351 C5.57861886,3.72224351 5.74880243,3.7231052 5.97628833,3.72525943 C6.20420507,3.7269828 6.37651209,3.72824456 6.4915168,3.72824456 C6.58987244,3.72824456 6.73823682,3.72396689 6.93537895,3.7158424 C7.13292115,3.70728705 7.28085469,3.70344023 7.37964118,3.70344023 C7.84356838,3.70344023 8.22495808,3.85866735 8.52301015,4.16909081 C8.81459955,4.47311315 8.96040964,4.85410278 8.96040964,5.31116725 C8.96040964,5.79777533 8.82700172,6.18688946 8.56064749,6.47807879 C8.28527631,6.77865438 7.90428668,6.92831129 7.4168169,6.92831129 C7.29753453,6.92831129 7.11624132,6.92360278 6.87336812,6.91464737 C6.63135661,6.90566118 6.44920171,6.90095267 6.32733427,6.90095267 C6.26021485,6.90095267 6.22642433,6.94326775 6.22642433,7.02835954 C6.22642433,7.13782482 6.23325629,7.30286903 6.24735106,7.52179959 C6.26064569,7.74116098 6.26747766,7.90534351 6.26747766,8.01523963 C6.26747766,8.05032269 6.24738184,8.06786421 6.20762105,8.06786421 C6.16315174,8.06786421 6.09686324,8.06312492 6.00749378,8.05413874 C5.91812432,8.04475248 5.85186659,8.04004397 5.80739728,8.04004397 C5.77105247,8.04090566 5.7158736,8.04389079 5.64235307,8.05029191 Z M6.21359132,5.85550849 C6.21913075,6.02907728 6.22171582,6.1599309 6.22171582,6.24674607 C6.22171582,6.26554936 6.24479677,6.28010574 6.29098946,6.29035369 C6.40645578,6.3130038 6.72669634,6.32457505 7.25134184,6.32457505 C7.54554708,6.32457505 7.77472558,6.2343439 7.93804642,6.05431245 C8.09115009,5.88243627 8.16811738,5.65110355 8.16811738,5.35908331 C8.16811738,5.04862907 8.08302559,4.80021645 7.9123804,4.61378388 C7.73665739,4.41922681 7.49252244,4.3221637 7.18209898,4.3221637 C7.08546671,4.3221637 6.91312891,4.3302882 6.6655472,4.34739888 C6.38208229,4.36407872 6.23624143,4.38032771 6.22771687,4.39700755 C6.21316048,4.42181188 6.20546682,4.77799718 6.20546682,5.46510183 C6.20546682,5.55148615 6.20848274,5.68190894 6.21359132,5.85550849 Z" id="Combined-Shape" fill="#FFFFFF"></path>
            </g>
        </g>
    </g>
</svg>