<?xml version="1.0" encoding="UTF-8"?>
<svg width="58px" height="62px" viewBox="0 0 58 62" version="1.1" xmlns="http://www.w3.org/2000/svg" xmlns:xlink="http://www.w3.org/1999/xlink">
    <!-- Generator: Sketch 49.1 (51147) - http://www.bohemiancoding.com/sketch -->
    <title>其他</title>
    <desc>Created with Sketch.</desc>
    <defs></defs>
    <g id="logo" stroke="none" stroke-width="1" fill="none" fill-rule="evenodd">
        <g id="Artboard" transform="translate(-131.000000, -230.000000)">
            <g id="其他" transform="translate(131.500000, 230.000000)">
                <rect id="Rectangle-2" fill="#E2EDF7" fill-rule="nonzero" x="0.359528103" y="0" width="56.4654203" height="61.75" rx="6"></rect>
                <g id="Group-2" transform="translate(7.895810, 11.535714)" fill="#999999" fill-opacity="0.5" stroke="#BCC2C7">
                    <g id="Group-4" transform="translate(0.000000, 0.000000)" fill-rule="nonzero">
                        <rect id="Rectangle-3" x="0" y="0.0524825883" width="38.7821716" height="2.17897345"></rect>
                        <rect id="Rectangle-3-Copy" x="0" y="5.97501779" width="38.7821716" height="2.17897345"></rect>
                        <rect id="Rectangle-3-Copy-2" x="0" y="11.5554309" width="19.3910858" height="2.17897345"></rect>
                    </g>
                    <g id="&lt;?&gt;" transform="translate(0.000000, 23.750000)">
                        <polygon id="&lt;" points="10.5153683 12.4851923 0.570055784 7.54434405 0.570055784 6.73854047 10.5153683 1.25695565 10.5153683 3.09121905 3.12530132 7.06722351 3.12530132 7.1202369 10.5153683 10.6615315"></polygon>
                        <path d="M19.8295551,0.0209377964 C21.0455551,0.0209377964 22.0335551,0.343937796 22.7555551,1.0279378 C23.4585551,1.6739378 23.8195551,2.5669378 23.8195551,3.7069378 C23.8195551,4.5619378 23.5725551,5.3029378 23.1165551,5.9299378 C22.9265551,6.1579378 22.3945551,6.6519378 21.5585551,7.3929378 C21.1595551,7.7349378 20.8745551,8.0769378 20.6845551,8.4189378 C20.4375551,8.8369378 20.3235551,9.3119378 20.3235551,9.8249378 L20.3235551,10.2619378 L18.7845551,10.2619378 L18.7845551,9.8249378 C18.7845551,9.1979378 18.8985551,8.6469378 19.1455551,8.1719378 C19.3925551,7.6019378 20.0385551,6.8799378 21.0645551,5.9679378 C21.3685551,5.6639378 21.5775551,5.4359378 21.7105551,5.2839378 C22.0715551,4.8089378 22.2615551,4.3149378 22.2615551,3.7829378 C22.2615551,3.0229378 22.0525551,2.4339378 21.6345551,2.0159378 C21.1785551,1.5599378 20.5515551,1.3509378 19.7535551,1.3509378 C18.8225551,1.3509378 18.1195551,1.6549378 17.6445551,2.2819378 C17.2455551,2.8139378 17.0365551,3.5359378 17.0365551,4.4669378 L15.5165551,4.4669378 C15.5165551,3.1369378 15.8965551,2.0729378 16.6375551,1.2749378 C17.4165551,0.438937796 18.4805551,0.0209377964 19.8295551,0.0209377964 Z M19.5635551,11.5919378 C19.8865551,11.5919378 20.1525551,11.6869378 20.3805551,11.9149378 C20.5895551,12.1239378 20.7035551,12.3899378 20.7035551,12.7129378 C20.7035551,13.0549378 20.5895551,13.3209378 20.3805551,13.5299378 C20.1525551,13.7389378 19.8675551,13.8529378 19.5635551,13.8529378 C19.2215551,13.8529378 18.9555551,13.7389378 18.7465551,13.5299378 C18.5185551,13.3019378 18.4045551,13.0359378 18.4045551,12.7129378 C18.4045551,12.3899378 18.5185551,12.1239378 18.7465551,11.9149378 C18.9555551,11.6869378 19.2215551,11.5919378 19.5635551,11.5919378 Z" id="?"></path>
                        <polygon id="&gt;" points="39.1018624 7.52313869 29.1565499 12.4639869 29.1565499 10.6403262 36.5572195 7.13083958 36.5572195 7.05662083 29.1565499 3.08061637 29.1565499 1.24635297 39.1018624 6.71733512"></polygon>
                    </g>
                </g>
            </g>
        </g>
    </g>
</svg>