<?xml version="1.0" encoding="UTF-8"?>
<svg width="79px" height="90px" viewBox="0 0 79 90" version="1.1" xmlns="http://www.w3.org/2000/svg" xmlns:xlink="http://www.w3.org/1999/xlink">
    <!-- Generator: Sketch 49.1 (51147) - http://www.bohemiancoding.com/sketch -->
    <title>Group 3</title>
    <desc>Created with Sketch.</desc>
    <defs>
        <linearGradient x1="50%" y1="0%" x2="50%" y2="100%" id="linearGradient-1">
            <stop stop-color="#FAD961" offset="0%"></stop>
            <stop stop-color="#F76B1C" offset="100%"></stop>
        </linearGradient>
        <linearGradient x1="50%" y1="-42.9129294%" x2="50%" y2="118.971473%" id="linearGradient-2">
            <stop stop-color="#1D94D1" offset="0%"></stop>
            <stop stop-color="#0A3954" offset="100%"></stop>
        </linearGradient>
        <linearGradient x1="50%" y1="-13.0667406%" x2="50%" y2="111.003802%" id="linearGradient-3">
            <stop stop-color="#1D94D1" offset="0%"></stop>
            <stop stop-color="#0A3954" offset="100%"></stop>
        </linearGradient>
    </defs>
    <g id="移动端" stroke="none" stroke-width="1" fill="none" fill-rule="evenodd">
        <g id="1公共目录-copy" transform="translate(-337.000000, -299.000000)">
            <g id="Group-8" transform="translate(124.000000, 299.000000)">
                <g id="Group-2" transform="translate(203.000000, 0.046359)">
                    <g id="Group-3" transform="translate(49.000000, 45.461537) scale(-1, 1) translate(-49.000000, -45.461537) translate(9.400000, 0.461537)">
                        <circle id="Combined-Shape" fill="url(#linearGradient-1)" cx="10.6049261" cy="44.4815805" r="10.6049261"></circle>
                        <path d="M28.4266135,60.8482298 C28.6141847,60.2651489 28.8455627,59.7380799 29.1207476,59.2670227 C32.1799694,54.0302947 36.4493458,49.5821438 36.4493458,44.3589451 C36.4493458,39.0935976 32.4400789,34.9818458 29.6662832,30.5577849 C28.5039709,28.8563622 27.8242598,26.7990746 27.8242598,24.5830319 C27.8242598,24.5290648 27.8246629,24.4751918 27.8254663,24.4214159 C27.8250636,24.4173746 27.8246614,24.4133313 27.8242598,24.4092862 C27.9184462,18.6324814 32.6302722,13.9781058 38.4291859,13.9781058 C44.2280996,13.9781058 48.9399256,18.6324814 49.0327175,24.4092862 C49.033714,24.4135665 49.0333154,24.4178449 49.032916,24.4221214 C49.0337124,24.475663 49.034112,24.5293008 49.034112,24.5830319 C49.034112,26.1938646 48.6749677,27.7208146 48.0323842,29.0881768 C47.9197524,29.3537124 47.7989951,29.5965517 47.6701125,29.8166949 C44.6934364,34.9011262 40.6358444,39.5484801 40.6358444,44.8863128 C40.6358444,49.8455469 43.9754964,53.4278382 46.9202821,58.0256742 C47.3375627,58.5823685 47.7013767,59.1814483 48.0041052,59.8152948 C48.3116767,60.3853413 48.5504997,61.0502868 48.7205742,61.8101313 C48.9253966,62.6329998 49.034112,63.4938685 49.034112,64.380129 C49.034112,64.4606966 49.0332135,64.5410543 49.0314261,64.6211927 C49.036617,64.8626454 49.0375123,65.1100276 49.034112,65.3633393 L48.9891386,65.3633393 C48.4930762,70.7593399 43.9546154,74.9850551 38.4291859,74.9850551 C32.9037564,74.9850551 28.3652956,70.7593399 27.8692331,65.3633393 L27.8242598,65.3633393 C27.8242598,65.1666584 27.8267622,64.9731771 27.831767,64.7828954 C27.826777,64.6492575 27.8242598,64.5149872 27.8242598,64.380129 C27.8242598,63.1417908 28.0365093,61.9530262 28.4266135,60.8482298 Z" id="Combined-Shape" fill="url(#linearGradient-2)"></path>
                        <path d="M57.4036281,47.3394519 C57.5911993,46.7563711 57.8225773,46.229302 58.0977622,45.7582448 C61.156984,40.5215168 65.4263604,36.0733659 65.4263604,30.8501672 C65.4263604,25.5848198 61.4170935,21.473068 58.6432978,17.049007 C57.4809855,15.3475844 56.8012744,13.2902967 56.8012744,11.0742541 C56.8012744,11.020287 56.8016775,10.966414 56.8024809,10.912638 C56.8020782,10.9085967 56.801676,10.9045535 56.8012744,10.9005083 C56.8954608,5.12370358 61.6072868,0.469327979 67.4062005,0.469327979 C73.2051142,0.469327979 77.9169402,5.12370358 78.0097321,10.9005083 C78.0107286,10.9047887 78.01033,10.9090671 78.0099306,10.9133435 C78.010727,10.9668852 78.0111266,11.020523 78.0111266,11.0742541 C78.0111266,12.6850867 77.6519823,14.2120367 77.0093988,15.5793989 C76.896767,15.8449345 76.7760097,16.0877739 76.6471271,16.307917 C73.670451,21.3923483 69.612859,26.0397023 69.612859,31.3775349 C69.612859,36.3367691 72.952511,39.9190604 75.8972967,44.5168963 C76.3145773,45.0735906 76.6783913,45.6726704 76.9811198,46.3065169 C77.2886913,46.8765634 77.5275143,47.5415089 77.6975888,48.3013534 C77.9024112,49.1242219 78.0111266,49.9850906 78.0111266,50.8713511 C78.0111266,50.9519187 78.0102281,51.0322764 78.0084407,51.1124149 C78.0136316,51.3538676 78.0145269,51.6012497 78.0111266,51.8545615 L77.9661532,51.8545615 C77.4700908,57.2505621 72.93163,61.4762772 67.4062005,61.4762772 C61.880771,61.4762772 57.3423102,57.2505621 56.8462477,51.8545615 L56.8012744,51.8545615 C56.8012744,51.6578805 56.8037768,51.4643992 56.8087816,51.2741175 C56.8037916,51.1404796 56.8012744,51.0062093 56.8012744,50.8713511 C56.8012744,49.633013 57.0135239,48.4442483 57.4036281,47.3394519 Z M67.4072098,89.3032975 C61.5502709,89.3032975 56.8022837,84.5553104 56.8022837,78.6983714 C56.8022837,72.8414325 61.5502709,68.0934453 67.4072098,68.0934453 C73.2641488,68.0934453 78.0121359,72.8414325 78.0121359,78.6983714 C78.0121359,84.5553104 73.2641488,89.3032975 67.4072098,89.3032975 Z" id="Combined-Shape" fill="url(#linearGradient-3)"></path>
                    </g>
                </g>
            </g>
        </g>
    </g>
</svg>