<?xml version="1.0" encoding="UTF-8"?>
<svg width="421px" height="376px" viewBox="0 0 421 376" version="1.1" xmlns="http://www.w3.org/2000/svg" xmlns:xlink="http://www.w3.org/1999/xlink">
    <!-- Generator: Sketch 49.1 (51147) - http://www.bohemiancoding.com/sketch -->
    <title>Group 2 Copy</title>
    <desc>Created with Sketch.</desc>
    <defs></defs>
    <g id="移动端" stroke="none" stroke-width="1" fill="none" fill-rule="evenodd">
        <g id="Group-2-Copy" transform="translate(-8.203823, -19.000000)">
            <text id="暂无内容" font-family="PingFangSC-Regular, PingFang SC" font-size="28" font-weight="normal" fill="#7C8495">
                <tspan x="166" y="392">暂无内容</tspan>
            </text>
            <g id="Illustration" opacity="0.5">
                <g id="Group-21" transform="translate(222.000000, 169.000000) rotate(-13.000000) translate(-222.000000, -169.000000) translate(24.000000, 42.000000)" fill="#F6F9FC" opacity="0.6">
                    <rect id="Rectangle-13" x="-1.80477855e-12" y="0.34879749" width="350.024396" height="84.6013173" rx="42.3006586"></rect>
                    <rect id="Rectangle-13" x="45.5188677" y="84.6013173" width="350.024396" height="84.6013173" rx="42.3006586"></rect>
                    <rect id="Rectangle-13" x="17.2657774" y="169.202635" width="350.024396" height="84.6013173" rx="42.3006586"></rect>
                </g>
                <path d="M126,98 L126,110.468327 C126,112.682975 126.571347,116.175504 127.368307,118.243118 C127.368307,118.243118 135.241765,146.700206 179.652199,182.382892 C224.062633,218.065578 274.902801,237.381808 274.902801,237.381808 C278.988309,239.05224 285.865117,240.108018 290.263022,239.717177 C290.263022,239.717177 322.136969,237.254543 341.754557,232.956122 C361.372145,228.6577 366.511773,225.554374 366.511773,225.554374 C369.542837,224.220409 372,220.45276 372,217.147367 L372,211.430122 L366.287029,215.877558 L349.193929,221.026911 L326.52215,226.270329" id="Path-4" fill="#E1EBF7"></path>
                <path d="M258.592054,135 C258.592054,135 274.81378,118.052665 271.571512,110.574918 C268.329244,103.097171 234,103 234,103" id="Path-5" stroke="#6E7585" stroke-width="6" stroke-linecap="round" stroke-linejoin="round"></path>
                <path d="M173.712356,84.7565871 C148.176573,86.8612963 131.931,92.3903871 131.931,92.3903871 C127.692159,93.6244358 125.681355,97.9071963 127.578177,101.889883 C127.578177,101.889883 140.37939,135.563508 181.925275,171.172371 C223.47116,206.781235 276.488307,228.220348 276.488307,228.220348 C280.535676,229.967566 287.383033,231.109973 291.780418,230.731843 C291.780418,230.731843 314.442163,229.283436 337.445602,224.346613 C360.449041,219.40979 368.582334,214.606677 368.582334,214.606677 C372.596215,212.761538 372.692626,209.594119 368.783868,207.498315 C368.783868,207.498315 299.682531,171.430513 269.917067,144.573392 C240.151602,117.71627 229.960875,93.3429228 229.960875,93.3429228 C227.993722,89.4013053 222.83321,85.7954794 218.450494,85.3657925 C218.450494,85.3657925 199.248139,82.6518779 173.712356,84.7565871 Z" id="Path-3" fill="#F6F9FC"></path>
                <path d="M241.309255,210.938209 C242.8324,211.769349 244.329144,212.574737 245.795562,213.353844 M261.147578,221.147395 C272.012098,226.408896 278.995006,229.258834 278.995006,229.258834 C281.755731,230.432397 286.427497,231.200348 289.416367,230.953958 C289.416367,230.953958 314.566536,229.283231 337.530427,224.346414 C360.494319,219.409598 370.902782,213.883666 370.902782,213.883666 C373.634672,212.642587 373.707469,210.492646 371.063207,209.06663 C371.063207,209.06663 326.745744,185.65064 293.441573,162.578469 M282.500667,154.689429 C277.900037,151.217036 273.706292,147.816575 270.117986,144.573306 C240.403694,117.716222 229.043795,91.0839907 229.043795,91.0839907 C227.735416,88.3899453 224.254569,85.9194728 221.274763,85.6063128 C221.274763,85.6063128 199.570552,82.6518798 174.078669,84.756586 C166.958256,85.3444743 160.267967,86.2818167 154.323054,87.3275265 M138.003011,90.8072116 C132.09055,92.2973745 128.607914,93.4450236 128.607914,93.4450236 C126.45363,94.0966043 125.414173,96.3032295 126.338051,98.3606285 C126.338051,98.3606285 140.803008,135.563435 182.277468,171.172248 C195.551162,182.568671 210.235888,192.619066 224.06885,201.017689" id="Path-3" stroke="#7C8495" stroke-width="4" stroke-linecap="round" stroke-linejoin="round"></path>
                <path d="M169.374171,141.850185 C176.078702,149.198657 184.294468,157.237109 194.156551,165.339498 C228.642808,193.672365 257.328089,207.122127 257.328089,207.122127 C258.671202,207.784747 260.964121,208.151303 262.4528,207.940382 L331.798005,198.115291 C333.285192,197.90458 333.408614,197.175081 332.077426,196.477729 C332.077426,196.477729 286.739247,173.447646 261.2756,148.678129 C235.811952,123.908612 224.897204,103.149573 224.897204,103.149573 C224.161467,101.84915 222.34686,100.891357 220.848714,101.009921 L146.700816,106.878048 L146.700816,106.878048 C145.200633,106.996774 144.569792,108.157655 145.311099,109.455585 C145.311099,109.455585 151.210058,120.769344 164.5198,136.352545" id="Path-3" stroke="#7C8495" stroke-width="4" fill="#FFFFFF" stroke-linecap="round" stroke-linejoin="round"></path>
                <path d="M166.000601,95.1063405 C166.000601,93.9989622 166.88483,92.9727691 167.980662,92.8276143 C167.980662,92.8276143 173.000601,91.999979 180.000601,91.999979 C187.000601,91.999979 192.031695,92.8290292 192.031695,92.8290292 C193.119092,92.9793752 194.000601,94.0009357 194.000601,95.1063405 L194.000601,94.2066533 C194.000601,95.3140316 193.100703,96.1142948 192.009356,96.0065981 C192.009356,96.0065981 187.000601,95.3903956 180.000601,95.3903956 C173.000601,95.3903956 167.991845,96.0065981 167.991845,96.0065981 C166.892111,96.1198943 166.000601,95.3120581 166.000601,94.2066533 L166.000601,95.1063405 Z" id="Rectangle-2" fill="#E1EBF7" transform="translate(180.000601, 94.008589) rotate(-4.000000) translate(-180.000601, -94.008589) "></path>
                <path d="M325.884594,212.06744 C321.429812,208.78299 313.84073,207.157574 308.933904,208.436972 C304.027078,209.716369 303.660624,213.147005 308.115406,216.099511 C312.570188,219.052016 320.15927,220.677432 325.066096,219.729979 C329.972922,218.782525 330.339376,215.35189 325.884594,212.06744 Z" id="Oval-2" fill="#E1EBF7"></path>
                <path d="M126,96 L126.103592,102.871186 C126.126272,104.375556 126.276358,106.803524 126.563521,108.278541 C126.563521,108.278541 126.378415,125.972958 169.696972,169.590419 C213.015529,213.20788 278.153287,238.346477 278.153287,238.346477 C280.931389,239.484792 285.609513,240.206021 288.59838,239.947449 C288.59838,239.947449 307.804328,238.439263 325.710832,235.880112 M338.207905,233.840828 C339.77623,233.543992 341.284997,233.238179 342.71518,232.923811 C362.358309,228.606064 369.294229,224.752735 369.294229,224.752735 C371.34087,223.819281 373,221.237732 373,218.981961 L373,211.30103" id="Path-4" stroke="#7C8495" stroke-width="4" stroke-linecap="round" stroke-linejoin="round"></path>
                <path d="M165,164 C165,164 127.609126,162.795241 119.82371,157.282677 C112.038294,151.770113 131.699314,135 131.699314,135" id="Path-6" stroke="#6E7585" stroke-width="6" stroke-linecap="round" stroke-linejoin="round"></path>
                <path d="M202.539909,138.528638 C201.674886,137.856995 201.866393,137.178071 202.948619,137.015085 L213.987749,135.352567 C215.078497,135.188298 215.94214,135.952278 215.734187,137.026008 C215.734187,137.026008 216.432426,139.827384 211.211771,140.895727 C205.991116,141.96407 202.539909,138.528638 202.539909,138.528638 Z" id="Path-7" fill="#7C8495" transform="translate(208.881030, 138.216007) rotate(8.000000) translate(-208.881030, -138.216007) "></path>
                <path d="M181,125 C181,125 181.038526,121.680743 184.403815,121.07573 C187.769104,120.470717 190,123.689527 190,123.689527" id="Path-8" stroke="#7C8495" stroke-width="4" stroke-linecap="round" stroke-linejoin="round" transform="translate(185.500000, 123.000000) rotate(7.000000) translate(-185.500000, -123.000000) "></path>
                <path d="M206,122 C206,122 206.038526,118.680743 209.403815,118.07573 C212.769104,117.470717 215,120.689527 215,120.689527" id="Path-8" stroke="#7C8495" stroke-width="4" stroke-linecap="round" stroke-linejoin="round" transform="translate(210.500000, 120.000000) rotate(-2.000000) translate(-210.500000, -120.000000) "></path>
                <circle id="Oval-11" fill="#18AEEE" opacity="0.400000006" cx="269" cy="48" r="6"></circle>
                <circle id="Oval-11" fill="#18AEEE" opacity="0.6" cx="279.5" cy="72.5" r="3.5"></circle>
                <circle id="Oval-11" fill="#18AEEE" opacity="0.659165112" cx="48.5" cy="133.5" r="5.5"></circle>
                <circle id="Oval-11" fill="#18AEEE" cx="144.5" cy="201.5" r="5.5"></circle>
                <circle id="Oval-11" fill="#18AEEE" opacity="0.35389459" cx="144.5" cy="221.5" r="3.5"></circle>
                <circle id="Oval-11" fill="#18AEEE" opacity="0.667910448" cx="178.5" cy="228.5" r="3.5"></circle>
                <g id="Group-23" opacity="0.7" transform="translate(64.500000, 78.000000) rotate(-30.000000) translate(-64.500000, -78.000000) translate(57.000000, 70.000000)" stroke="#11B9F3" stroke-linecap="round" stroke-width="7">
                    <path d="M1.37134748e-12,7.8669612 L14.8041906,7.8669612" id="Line"></path>
                    <g id="Group-22" transform="translate(7.109459, 7.966852) rotate(-270.000000) translate(-7.109459, -7.966852) translate(-0.390541, 5.466852)">
                        <path d="M5.59552404e-14,2.20274914 L14.8041906,2.20274914" id="Line"></path>
                    </g>
                </g>
                <g id="Group-23" opacity="0.770230877" transform="translate(149.000000, 291.000000) rotate(-330.000000) translate(-149.000000, -291.000000) translate(143.000000, 285.000000)" stroke="#10B9F3" stroke-linecap="round" stroke-width="6">
                    <path d="M9.66338121e-13,5.76153656 L11.5230731,5.76153656" id="Line"></path>
                    <g id="Group-22" transform="translate(5.701921, 6.000000) rotate(-270.000000) translate(-5.701921, -6.000000) translate(-0.298079, 4.500000)">
                        <path d="M3.41060513e-13,1.44038414 L11.5230731,1.44038414" id="Line"></path>
                    </g>
                </g>
                <g id="Group-23" transform="translate(420.000000, 187.500000) rotate(-296.000000) translate(-420.000000, -187.500000) translate(414.000000, 181.000000)" stroke="#11B9F3" stroke-linecap="round" stroke-width="6">
                    <path d="M1.47792889e-12,5.99528966 L11.5230731,5.99528966" id="Line"></path>
                    <g id="Group-22" transform="translate(5.768930, 6.243428) rotate(-270.000000) translate(-5.768930, -6.243428) translate(-0.231070, 4.743428)">
                        <path d="M-5.68434189e-14,1.49882242 L11.5230731,1.49882242" id="Line"></path>
                    </g>
                </g>
            </g>
        </g>
    </g>
</svg>