<?xml version="1.0" encoding="UTF-8"?>
<svg width="13px" height="17px" viewBox="0 0 13 17" version="1.1" xmlns="http://www.w3.org/2000/svg" xmlns:xlink="http://www.w3.org/1999/xlink">
    <!-- Generator: Sketch 49.1 (51147) - http://www.bohemiancoding.com/sketch -->
    <title>密码</title>
    <desc>Created with Sketch.</desc>
    <defs></defs>
    <g id="移动端" stroke="none" stroke-width="1" fill="none" fill-rule="evenodd">
        <g id="Artboard-3" transform="translate(-182.000000, -216.000000)" fill="#899098">
            <path d="M193.071429,222.286974 L192.309524,222.286974 L192.309524,220.763164 C192.309524,218.660307 190.602857,216.953641 188.5,216.953641 C186.397143,216.953641 184.690476,218.660307 184.690476,220.763164 L184.690476,222.286974 L183.928571,222.286974 C183.090476,222.286974 182.404762,222.972688 182.404762,223.810783 L182.404762,231.429831 C182.404762,232.267926 183.090476,232.953641 183.928571,232.953641 L193.071429,232.953641 C193.909524,232.953641 194.595238,232.267926 194.595238,231.429831 L194.595238,223.810783 C194.595238,222.972688 193.909524,222.286974 193.071429,222.286974 L193.071429,222.286974 Z M188.5,229.144117 C187.661905,229.144117 186.97619,228.458402 186.97619,227.620307 C186.97619,226.782212 187.661905,226.096498 188.5,226.096498 C189.338095,226.096498 190.02381,226.782212 190.02381,227.620307 C190.02381,228.458402 189.338095,229.144117 188.5,229.144117 L188.5,229.144117 Z M190.861905,222.286974 L186.138095,222.286974 L186.138095,220.763164 C186.138095,219.460307 187.197143,218.40126 188.5,218.40126 C189.802857,218.40126 190.861905,219.460307 190.861905,220.763164 L190.861905,222.286974 L190.861905,222.286974 Z" id="Shape"></path>
        </g>
    </g>
</svg>