<?xml version="1.0" encoding="UTF-8"?>
<svg width="84px" height="84px" viewBox="0 0 84 84" version="1.1" xmlns="http://www.w3.org/2000/svg" xmlns:xlink="http://www.w3.org/1999/xlink">
    <!-- Generator: Sketch 49.1 (51147) - http://www.bohemiancoding.com/sketch -->
    <title>qq</title>
    <desc>Created with Sketch.</desc>
    <defs></defs>
    <g id="移动端" stroke="none" stroke-width="1" fill="none" fill-rule="evenodd">
        <g id="Artboard" transform="translate(-281.000000, -133.000000)">
            <g id="Lunch-Icon-w/Background" transform="translate(282.000000, 134.000000)">
                <circle id="Background" stroke="#DCDCDC" cx="41" cy="41" r="41"></circle>
                <g id="qq" transform="translate(19.133333, 14.984012)" fill-rule="nonzero">
                    <path d="M27.1511429,46.7705716 C25.1204569,46.7705716 23.3325655,46.8233013 21.8634351,46.9601897 C20.3957942,46.8233013 18.6113287,46.7705717 16.5857072,46.7705716 C10.7470196,46.7705716 5.5525568,48.9826832 5.5525568,50.6165565 C5.5525568,52.18206 9.86804371,52.0068904 15.6924318,51.9479048 C18.0327925,51.9242211 20.1945577,51.6824693 21.9461044,51.2965302 C23.6690519,51.660722 25.7719804,51.8883233 28.0439714,51.9111132 C33.8643377,51.9698009 38.1768456,52.1439278 38.1768455,50.589298 C38.1769945,48.9670431 32.9859576,46.7705717 27.1511429,46.7705716 Z" id="Shape" fill="#FAAF08"></path>
                    <path d="M41.6726402,30.7036796 C40.577812,27.7575599 39.3844687,24.8489935 38.0946231,21.9828867 C38.1546514,21.2890603 38.1856338,20.5843603 38.1856338,19.8710209 C38.1856338,8.89670728 32.5687383,0 21.8927789,0 C11.2168196,0 5.59962618,8.89670728 5.59962618,19.8710209 C5.59962618,20.5395252 5.62807632,21.199688 5.68095491,21.8512115 C4.84174971,23.716261 3.45916136,26.9172762 2.05452785,30.7254268 C-0.192736771,36.8182294 -0.292088926,42.3271335 0.489024351,42.7364583 C1.04491962,43.0278117 3.0754566,40.8974757 5.0100674,37.4496442 C6.28853712,45.5740265 11.6894497,51.6499973 21.89263,51.6499973 C32.0682539,51.6499973 37.4672301,45.6066474 38.7644679,37.5151839 C40.688503,40.8959862 42.6911857,42.9777633 43.2435061,42.6899848 C44.0274494,42.2814047 43.9276505,36.7839701 41.6726402,30.7036796 Z" id="Shape" fill="#000000"></path>
                    <path d="M17.5312653,6.50748976 C15.9469936,6.53817422 14.6983147,8.40501107 14.742405,10.6772999 C14.7864953,12.9495888 16.1065231,14.7665261 17.6906458,14.7358417 C19.2749175,14.7051573 20.5235964,12.8381715 20.4795061,10.5660315 C20.4355648,8.2938916 19.115537,6.4768053 17.5312653,6.50748976 Z M26.2873603,6.54949468 C24.6852142,6.51895919 23.3501421,8.32681037 23.3056049,10.5873319 C23.2610677,12.8478534 24.5237483,14.7053062 26.1261924,14.7359907 C27.7283385,14.7665261 29.0634106,12.958675 29.1079478,10.6981534 C29.152485,8.43763191 27.8898044,6.58003017 26.2873603,6.54949468 Z" id="Shape" fill="#FFFFFF"></path>
                    <path d="M32.3071756,24.7733855 C29.2095342,25.3120021 25.6185581,25.6200384 21.7902988,25.6200384 C18.0354736,25.6200384 14.5098883,25.3233226 11.4530602,24.803772 C9.3374706,27.4231231 9.17079141,31.2768535 9.17079141,35.5746149 C9.17079141,43.4663315 13.6346363,49.8640424 21.8927789,49.8640424 C30.1507727,49.8640424 34.6146175,43.4664804 34.6146175,35.5746149 C34.6146175,31.2600217 34.4461509,27.3933323 32.3071756,24.7733855 Z" id="Shape" fill="#FFFFFF"></path>
                    <path d="M21.8927789,16.0755314 C16.3457427,16.0755314 11.8491281,17.1919395 11.8491281,18.084917 C11.8491281,18.9780434 17.7265436,21.4339922 21.8927789,21.4339922 C26.0590142,21.4339922 31.9364298,18.918313 31.9364298,18.084917 C31.9364298,17.251521 27.4396662,16.0755314 21.8927789,16.0755314 Z" id="Shape" fill="#FAAF08"></path>
                    <path d="M38.0946231,21.9828867 C38.0964106,21.9627779 38.0968574,21.9425202 38.0984959,21.9224114 C34.0201433,23.272379 28.267551,24.1133716 21.89263,24.1133716 C15.5004304,24.1133716 9.73413438,23.2676124 5.65384533,21.9113889 C4.78625726,23.8466657 3.9624822,25.8012877 3.18315012,27.7737601 C5.6970419,28.6058155 8.51584193,29.2726813 11.5513696,29.7411407 L11.5513696,37.2117652 C11.5513696,37.2117652 13.7006227,37.6115569 15.7299681,37.6960137 C17.1676693,37.7558931 18.6935511,37.5095236 18.6935511,37.5095236 L18.6935511,30.4395847 C19.7457602,30.4866541 20.8118219,30.5136147 21.8927789,30.5136147 C28.9046259,30.5136147 35.3696639,29.498793 40.5528062,27.789996 C39.7768934,25.8361735 38.9572933,23.8999843 38.0946231,21.9828867 Z" id="Shape" fill="#E91F1F"></path>
                    <path d="M18.4690779,9.37946626 C17.7710808,9.37946626 17.2053546,10.1120206 17.2053546,11.0155738 C17.2053546,11.9191271 17.7710808,12.6516814 18.4690779,12.6516814 C19.167075,12.6516813 19.7328012,11.919127 19.7328012,11.0155738 C19.7328012,10.1120207 19.167075,9.37946626 18.4690779,9.37946626 Z M27.7700455,10.4193121 C27.7700455,10.4193121 27.263454,9.811432 25.9846864,9.97274889 C24.7251338,10.1315335 24.2329907,10.8617047 24.1398946,10.9397564 C24.1398946,10.9397564 23.8376676,11.3548904 24.0502245,11.6100481 C24.2627814,11.8652057 24.6454435,11.4612433 24.6454435,11.4612433 C24.6454435,11.4612434 25.2281504,10.7417969 25.9845374,10.7169216 C26.7409243,10.6921953 27.1748265,11.0146801 27.1748265,11.0146801 C27.1748265,11.0146801 27.546764,11.2875633 27.7698966,11.0146801 C27.9933271,10.7417969 27.7700455,10.4193121 27.7700455,10.4193121 Z" id="Shape" fill="#000000"></path>
                </g>
            </g>
        </g>
    </g>
</svg>