<?xml version="1.0" encoding="UTF-8"?>
<svg width="83px" height="82px" viewBox="0 0 83 82" version="1.1" xmlns="http://www.w3.org/2000/svg" xmlns:xlink="http://www.w3.org/1999/xlink">
    <!-- Generator: Sketch 49.1 (51147) - http://www.bohemiancoding.com/sketch -->
    <title>1</title>
    <desc>Created with Sketch.</desc>
    <defs></defs>
    <g id="移动端" stroke="none" stroke-width="1" fill="none" fill-rule="evenodd">
        <g id="Artboard" transform="translate(-393.000000, -133.000000)">
            <g id="1" transform="translate(393.000000, 133.000000)">
                <g id="Lunch-Icon-w/Background-Copy-2" transform="translate(0.360004, 0.000000)" fill="#DCDCDC" fill-opacity="0.6">
                    <circle id="Background" cx="41" cy="41" r="41"></circle>
                </g>
                <g id="二维码" transform="translate(18.360004, 18.000000)" fill="#000000" fill-rule="nonzero">
                    <path d="M0.0506804597,21.5611547 L21.5661262,21.5611547 L21.5661262,0.0457610623 L0.0506804597,0.0457610623 L0.0506804597,21.5611547 Z M5.42958094,5.42460948 L16.1872778,5.42460948 L16.1872778,16.1823063 L5.42958094,16.1823063 L5.42958094,5.42460948 Z M24.2555764,0.0457610623 L24.2555764,21.5612068 L45.7710222,21.5612068 L45.7710222,0.0457610623 L24.2555764,0.0457610623 Z M40.3921217,16.1823063 L29.6344249,16.1823063 L29.6344249,5.42460948 L40.3921217,5.42460948 L40.3921217,16.1823063 Z M8.11897912,13.4929081 L13.4978275,13.4929081 L13.4978275,8.11400766 L8.11897912,8.11400766 L8.11897912,13.4929081 Z M0.0506804597,45.7660507 L21.5661262,45.7660507 L21.5661262,24.250605 L0.0506804597,24.250605 L0.0506804597,45.7660507 Z M5.42958094,29.6294534 L16.1872778,29.6294534 L16.1872778,40.3871502 L5.42958094,40.3871502 L5.42958094,29.6294534 Z M37.7027235,8.11400766 L32.323823,8.11400766 L32.323823,13.4928561 L37.7027235,13.4928561 L37.7027235,8.11400766 Z M24.2555764,45.7660507 L29.6344249,45.7660507 L29.6344249,40.3872023 L24.2555764,40.3872023 L24.2555764,45.7660507 Z M29.6344249,29.6294534 L29.6344249,40.3871502 L35.0132733,40.3871502 L35.0132733,29.6294534 L29.6344249,29.6294534 Z M40.3921217,40.3872023 L35.0132733,40.3872023 L35.0132733,45.7660507 L45.7709701,45.7660507 L45.7709701,35.0083018 L40.3921217,35.0083018 L40.3921217,40.3872023 Z M40.3921217,29.6294534 L45.7709701,29.6294534 L45.7709701,24.250605 L40.3921217,24.250605 L40.3921217,29.6294534 Z M24.2555764,24.250605 L24.2555764,29.6294534 L29.6344249,29.6294534 L29.6344249,24.250605 L24.2555764,24.250605 Z M8.11897912,37.6977521 L13.4978275,37.6977521 L13.4978275,32.3189036 L8.11897912,32.3189036 L8.11897912,37.6977521 Z" id="Shape"></path>
                </g>
            </g>
        </g>
    </g>
</svg>