<?xml version="1.0" encoding="UTF-8"?>
<svg width="58px" height="63px" viewBox="0 0 58 63" version="1.1" xmlns="http://www.w3.org/2000/svg" xmlns:xlink="http://www.w3.org/1999/xlink">
    <!-- Generator: Sketch 49.1 (51147) - http://www.bohemiancoding.com/sketch -->
    <title>txt</title>
    <desc>Created with Sketch.</desc>
    <defs></defs>
    <g id="logo" stroke="none" stroke-width="1" fill="none" fill-rule="evenodd">
        <g id="Artboard" transform="translate(-43.000000, -230.000000)" fill-rule="nonzero">
            <g id="txt" transform="translate(43.482763, 230.000000)">
                <rect id="Rectangle-2" fill="#E2EDF7" x="0.195847853" y="0.339285714" width="56.4654203" height="61.75" rx="6"></rect>
                <g id="Group-2" transform="translate(7.732129, 11.875000)" fill="#0099E8" stroke="#0099E8">
                    <rect id="Rectangle-3" x="0.306059533" y="0.0478788525" width="40.3345164" height="1.98783543"></rect>
                    <rect id="Rectangle-3-Copy" x="0.306059533" y="5.45089342" width="40.3345164" height="1.98783543"></rect>
                    <rect id="Rectangle-3-Copy-2" x="0.306059533" y="10.5417966" width="20.1672582" height="1.98783543"></rect>
                    <path d="M12.0951302,24.1422991 L7.35573288,24.1422991 L7.35573288,38.6785714 L5.22459448,38.6785714 L5.22459448,24.1422991 L0.506402516,24.1422991 L0.506402516,22.2550223 L12.0951302,22.2550223 L12.0951302,24.1422991 Z M27.1094866,38.6785714 L24.5330357,38.6785714 L20.864509,32.4972098 C20.7796871,32.35584 20.6559904,32.0731048 20.4934152,31.6489955 L20.4404018,31.6489955 C20.4262649,31.7055435 20.299034,31.9918129 20.0587054,32.5078125 L16.2841518,38.6785714 L13.6970982,38.6785714 L19.1574777,30.4296875 L14.1318081,22.2550223 L16.7294643,22.2550223 L19.973884,27.938058 C20.1647331,28.270277 20.3555794,28.6590379 20.5464286,29.1043527 L20.5888393,29.1043527 C20.758483,28.7226543 20.9670003,28.3162224 21.2143973,27.8850446 L24.6072545,22.2550223 L27.0352679,22.2550223 L21.9035715,30.3978795 L27.1094866,38.6785714 Z M40.8409189,24.1422991 L36.1015216,24.1422991 L36.1015216,38.6785714 L33.9703832,38.6785714 L33.9703832,24.1422991 L29.2521913,24.1422991 L29.2521913,22.2550223 L40.8409189,22.2550223 L40.8409189,24.1422991 Z" id="TXT"></path>
                </g>
            </g>
        </g>
    </g>
</svg>