<?xml version="1.0" encoding="UTF-8"?>
<svg width="87px" height="90px" viewBox="0 0 87 90" version="1.1" xmlns="http://www.w3.org/2000/svg" xmlns:xlink="http://www.w3.org/1999/xlink">
    <!-- Generator: Sketch 49.1 (51147) - http://www.bohemiancoding.com/sketch -->
    <title>音频</title>
    <desc>Created with Sketch.</desc>
    <defs></defs>
    <g id="Page-1" stroke="none" stroke-width="1" fill="none" fill-rule="evenodd">
        <g id="r" transform="translate(-10.000000, 0.000000)">
            <g id="Group" transform="translate(10.000000, 0.000000)">
                <path d="M12.002521,0 L12.5507767,0 L75.002521,0 C81.629938,-1.21743675e-15 87.002521,5.372583 87.002521,12 L87.002521,78 C87.002521,84.627417 81.629938,90 75.002521,90 L12.002521,90 C5.37510397,90 0.002520966,84.627417 0.002520966,78 L0.002520966,12 C0.002520966,5.372583 5.37510397,1.21743675e-15 12.002521,0 Z" id="Rectangle" fill="#66D189"></path>
                <path d="M56.0946079,37.2685186 L56.0946079,32.8422284 L48.7879241,28.0315938 L41.1039071,28.0315938 L41.1039071,50.6214634 C34.3082584,49.6634602 30.9104341,51.6154167 30.9104341,56.4773329 C30.9104341,63.7702073 44.0134671,63.2996663 45.1350937,57.9948277 C45.8828448,54.4582687 45.8828448,46.8523822 45.1350937,35.1771684 C48.4162649,34.6653698 50.6902056,34.8859785 51.9569156,35.8389945 C53.2236257,36.7920106 54.6028565,37.2685186 56.0946079,37.2685186 Z" id="Path-2" fill="#FFFFFF"></path>
            </g>
        </g>
    </g>
</svg>