<?xml version="1.0" encoding="UTF-8"?>
<svg width="82px" height="82px" viewBox="0 0 82 82" version="1.1" xmlns="http://www.w3.org/2000/svg" xmlns:xlink="http://www.w3.org/1999/xlink">
    <!-- Generator: Sketch 49.1 (51147) - http://www.bohemiancoding.com/sketch -->
    <title>微信</title>
    <desc>Created with Sketch.</desc>
    <defs></defs>
    <g id="移动端" stroke="none" stroke-width="1" fill="none" fill-rule="evenodd">
        <g id="Artboard" transform="translate(-105.000000, -134.000000)" fill="#19D100" fill-rule="nonzero">
            <g id="微信" transform="translate(105.000000, 134.000000)">
                <path d="M46.4132012,40.9643652 C45.3862942,41.0293071 44.5817737,41.8726296 44.5652383,42.9014551 C44.6685933,43.8659401 45.4674431,44.6064501 46.4369844,44.6365078 C47.8393125,44.6365078 48.8137031,43.7690215 48.8137031,42.9014551 C48.8137031,41.8318516 47.8095234,40.9643652 46.4369844,40.9643652 L46.4132012,40.9643652 Z M40.2632012,31.950291 C40.8985207,31.993549 41.5219922,31.762923 41.9762249,31.316633 C42.4304576,30.870343 42.672045,30.2510364 42.64,29.6150527 C42.6840758,28.975819 42.4463186,28.3492923 41.9892527,27.9002341 C41.5321869,27.4511758 40.9015561,27.2245284 40.2632012,27.2798945 C38.860873,27.2798945 37.5238887,28.1473809 37.5238887,29.6150527 C37.5238887,31.0827246 38.860873,31.950291 40.2632012,31.950291 Z M41,0 C18.3563253,-1.38652519e-15 2.77305038e-15,18.3563253 0,41 C-2.77305038e-15,63.6436747 18.3563253,82 41,82 C63.6436747,82 82,63.6436747 82,41 C82,30.1261239 77.6803695,19.6976135 69.991378,12.008622 C62.3023865,4.31963045 51.8738761,6.65832877e-16 41,0 Z M33.2753438,51.3866934 C31.0292833,51.3685195 28.7991364,51.0078367 26.6618516,50.3170898 L19.888043,53.7278574 L21.8251328,47.9818516 C17.0833066,44.6424336 14.260873,40.4058203 14.260873,35.289709 C14.260873,26.2043652 22.8114551,19.2462168 33.2337832,19.2462168 C42.4498945,19.2462168 50.6676719,24.7247617 52.248334,32.4732012 C51.6620495,32.3482612 51.0650099,32.2805974 50.4656348,32.2711641 C41.380291,32.2711641 34.3687305,39.0866133 34.3687305,47.298625 C34.3776374,48.6527227 34.5573094,50.0002895 34.9034922,51.309418 C34.3487172,51.3643834 33.7911571,51.3862035 33.2337832,51.3747617 L33.2753438,51.3866934 Z M61.1316406,57.9229102 L62.468625,62.73 L57.3940742,59.86 C55.4569844,60.2581484 53.5853184,60.8641797 51.6482285,60.8641797 C42.699498,60.8641797 35.6047363,54.7201055 35.6047363,47.1024336 C35.6047363,39.4847617 42.6876465,33.3406875 51.6482285,33.3406875 C60.1036777,33.3526191 67.739207,39.4966934 67.739207,47.1143652 C67.739207,51.3866934 64.869207,55.1955293 61.1257148,57.9347617 L61.1316406,57.9229102 Z M27.0362168,27.2738086 C25.6338887,27.2738086 24.1662168,28.141375 24.1662168,29.6090469 C24.1662168,31.0767187 25.6338887,31.9502109 27.0362168,31.9502109 C27.6666528,31.9714957 28.2781536,31.7328751 28.7275493,31.2902171 C29.1769449,30.8475591 29.4247751,30.2397324 29.4130156,29.6090469 C29.4356017,28.9757415 29.1910179,28.3620938 28.7389915,27.9179565 C28.286965,27.4738192 27.6691065,27.2400766 27.0362969,27.2738086 L27.0362168,27.2738086 Z M56.8949473,40.940502 C55.8479948,40.96958 55.01635,41.830258 55.0232012,42.8775918 C55.1032769,43.8535752 55.9157027,44.6066696 56.8949473,44.6126445 C58.2318516,44.6126445 59.2301055,43.7451582 59.2301055,42.8775918 C59.2301055,41.8080684 58.2259258,40.940502 56.8949473,40.940502 Z" id="Shape"></path>
            </g>
        </g>
    </g>
</svg>