<?xml version="1.0" encoding="UTF-8"?>
<svg width="59px" height="69px" viewBox="0 0 59 69" version="1.1" xmlns="http://www.w3.org/2000/svg" xmlns:xlink="http://www.w3.org/1999/xlink">
    <!-- Generator: Sketch 49.1 (51147) - http://www.bohemiancoding.com/sketch -->
    <title>压缩包 (1)</title>
    <desc>Created with Sketch.</desc>
    <defs></defs>
    <g id="门户lvo.4" stroke="none" stroke-width="1" fill="none" fill-rule="evenodd">
        <g id="Artboard" transform="translate(-394.000000, -1509.000000)" fill-rule="nonzero">
            <g id="压缩包-(1)" transform="translate(394.000000, 1509.439131)">
                <path d="M2.57827856,0 C1.30636313,0 0.0344477094,1.27191542 0.0344477094,2.54383085 L0.0344477094,65.2916584 C0.0344477094,66.5635738 1.30636313,67.8354892 2.57827856,67.8354892 L55.9987263,67.8354892 C57.2706417,67.8354892 58.5425572,66.5635738 58.5425572,65.2916584 L58.5425572,14.8390133 L43.7035439,0 L2.57827856,0 Z" id="Shape" fill="#F48337"></path>
                <path d="M44.1275157,0 L44.1275157,11.8712106 C44.1275157,13.143126 45.3994311,14.4150415 46.6713465,14.4150415 L58.5425572,14.4150415 L44.1275157,0 Z" id="Shape" fill="#EFBB97"></path>
                <path d="M15.0854469,6.78354892 L21.445024,6.78354892 L21.445024,11.023267 L15.0854469,11.023267 L15.0854469,6.78354892 Z M8.72586977,11.023267 L15.0854469,11.023267 L15.0854469,15.2629851 L8.72586977,15.2629851 L8.72586977,11.023267 Z M15.0854469,15.2629851 L21.445024,15.2629851 L21.445024,19.5027031 L15.0854469,19.5027031 L15.0854469,15.2629851 Z M8.72586977,19.5027031 L15.0854469,19.5027031 L15.0854469,23.7424212 L8.72586977,23.7424212 L8.72586977,19.5027031 Z M15.0854469,23.7424212 L21.445024,23.7424212 L21.445024,27.9821393 L15.0854469,27.9821393 L15.0854469,23.7424212 Z M8.72586977,27.9821393 L15.0854469,27.9821393 L15.0854469,32.2218574 L8.72586977,32.2218574 L8.72586977,27.9821393 Z M8.72586977,36.4615755 L8.72586977,51.3005887 C8.72586977,52.4704859 9.67550037,53.4204478 10.8457288,53.4204478 L19.325165,53.4204478 C20.4955921,53.4197853 21.444229,52.4710159 21.445024,51.3005887 L21.445024,32.2218574 L15.0854469,32.2218574 L15.0854469,36.4615755 L8.72586977,36.4615755 Z M19.325165,44.9410116 L19.325165,49.1807297 L10.8457288,49.1807297 L10.8457288,44.9410116 L19.325165,44.9410116 Z" id="Shape" fill="#FFFFFF"></path>
            </g>
        </g>
    </g>
</svg>